<svg width="133" height="111" viewBox="0 0 133 111" fill="none" xmlns="http://www.w3.org/2000/svg">
    <path
        d="M55.6679 3.85202C50.3719 5.95772 45.5575 7.94309 45.0158 8.30406C44.1733 8.78537 43.9326 9.98862 43.8122 14.1398L43.6317 19.3139L27.8041 25.4505C16.7909 29.722 11.495 32.0684 10.3516 33.2114C8.72669 34.8358 8.72669 34.9562 8.72669 42.5367V50.1774L23.6516 50.3578L38.5163 50.4782V55.8928V61.3075L24.8552 61.1871L11.1339 61.0067L10.9534 57.5172C10.7728 54.5692 10.5923 54.0879 9.6294 54.0879C8.48596 54.0879 8.42578 54.5692 8.42578 64.5563C8.42578 75.6864 8.84705 78.0929 11.1941 79.5969C12.4579 80.4392 24.7348 85.3726 51.7561 95.8409C56.5104 97.7059 60.7832 99.21 61.2045 99.21C61.6258 99.21 61.9869 98.6685 61.9869 98.0669C61.9869 97.2848 61.2045 96.623 59.4593 96.0214C55.9688 94.8181 15.7679 79.0555 13.7819 78.153C11.4348 77.0701 10.833 75.1449 10.833 69.1286V63.714H25.1561L39.419 63.7741L41.2244 67.805C44.7149 75.7465 52.8995 82.0035 61.9267 83.688L65.5977 84.41V92.7124C65.5977 100.353 65.7181 101.075 66.681 100.895C67.5837 100.714 67.7041 99.7515 67.8846 92.5319L68.0651 84.2896L71.7964 83.5677C80.7032 81.8831 88.1054 76.1677 91.8968 68.166L94.0032 63.714H108.085H122.168V69.6701C122.168 74.4229 121.987 75.8669 121.145 76.8896C120.423 77.6717 111.456 81.462 96.5909 87.2376C83.7122 92.2311 72.6389 96.5628 72.0973 96.8637C70.7131 97.5856 70.7131 99.21 72.0371 99.21C73.0602 99.21 117.895 81.823 120.964 80.2587C124.094 78.6343 124.816 76.7693 124.996 70.0912C125.057 66.7221 124.996 63.4132 124.816 62.631L124.455 61.3075H109.59H94.6651L94.7855 56.0131L94.8457 50.779H108.386H121.867L122.047 53.9074C122.228 57.3367 123.492 59.1416 124.455 57.2766C125.297 55.7123 125.357 40.4911 124.575 36.8212C124.214 35.1367 123.432 33.3318 122.83 32.7903C121.807 31.8277 117.353 30.0228 96.4706 21.961L89.1285 19.1334L88.9479 13.7187L88.7674 8.2439L78.0552 4.09267C72.2176 1.80649 66.9217 -0.0585659 66.3199 0.00159685C65.7783 0.0617596 60.9638 1.80649 55.6679 3.85202ZM65.4774 7.46179L65.2968 10.8911L59.2787 13.2374C55.9688 14.561 51.8163 16.1252 50.071 16.787L46.8814 17.9903L47.062 13.9594L47.2425 9.86829L55.9688 6.49918C60.7832 4.63413 64.9357 3.31056 65.1765 3.55121C65.4172 3.79186 65.5977 5.53658 65.4774 7.46179ZM80.3421 7.64227L86.3602 9.98862L86.5407 14.0195C86.7213 17.6895 86.6009 18.0504 85.638 17.7496C85.0362 17.5691 80.8837 15.9447 76.4303 14.2L68.3059 11.0114L68.1253 6.98048L67.9448 2.94958L71.1344 4.15283C72.8796 4.81462 77.0321 6.37886 80.3421 7.64227ZM65.5977 20.6976V27.5562L63.371 27.9171C58.6167 28.6992 54.3439 30.3838 50.733 32.7903L46.9416 35.3171V28.0375V20.6976L55.5475 17.2683C60.2416 15.4033 64.4543 13.839 64.8755 13.839C65.4172 13.7789 65.5977 15.5236 65.5977 20.6976ZM77.6339 17.2683L86.3602 20.7578L86.5407 28.0976C86.6009 32.1285 86.5407 35.4375 86.3 35.4375C86.1194 35.4375 85.0964 34.7757 84.1335 33.8732C80.8235 31.1659 75.4072 28.8196 70.2918 27.9171L68.005 27.5562V20.6976C68.005 16.9073 68.1855 13.7789 68.4864 13.7789C68.7271 13.7789 72.8194 15.3431 77.6339 17.2683ZM43.9326 30.3838V38.5659L41.7059 43.3188L39.419 48.0115H25.1561L10.833 48.0717V42.657C10.833 39.709 11.1339 36.6407 11.495 35.7984C11.9163 34.8358 13.4208 33.8131 15.8882 32.7903C23.5914 29.6017 42.4882 22.2618 43.2104 22.2618C43.752 22.2017 43.9326 24.2472 43.9326 30.3838ZM105.197 27.9171C114.043 31.3464 120.483 34.1741 121.145 34.9562C121.987 35.9188 122.168 37.3025 122.168 42.1155V48.0717H108.146H94.1235L91.5959 43.0781L89.0683 38.1448V30.1431C89.0683 25.0293 89.309 22.2017 89.6701 22.2017C90.0312 22.2017 97.0122 24.7887 105.197 27.9171ZM72.1575 30.9253C88.4665 34.7757 96.8918 52.3432 89.6099 67.2034C84.7955 77.0701 73.1203 83.1465 62.6489 81.2213C57.5335 80.2587 53.1403 78.153 49.3489 74.7238C38.9375 65.3985 38.1552 49.0343 47.6036 38.7464C50.9737 35.0765 55.4873 32.309 60.1213 31.1058C65.0561 29.8423 67.2828 29.7822 72.1575 30.9253Z"
        fill="#4C17C0" />
    <path
        d="M63.37 38.4455C54.2827 40.3106 48.2646 48.0114 48.9266 57.096C49.5886 66.6619 56.8705 73.5806 66.4393 73.5806C79.0773 73.6407 87.4424 61.7887 83.29 49.696C80.7022 42.0553 71.4945 36.8211 63.37 38.4455ZM73.2397 42.1756C82.2067 46.3268 84.6741 58.3594 78.1144 65.8196C70.1103 74.9042 55.4262 71.896 52.056 60.4651C50.9126 56.6748 50.9126 54.3887 52.056 51.0195C55.0049 42.2959 64.8144 38.265 73.2397 42.1756Z"
        fill="#DA75FF" />
    <path
        d="M17.5729 20.6975C10.2308 23.7658 3.73122 26.6536 3.18959 27.1349C2.64796 27.5561 1.74525 29 1.14344 30.3236C0.120362 32.4894 0 34.7756 0 55.8927C0 77.3107 0.120362 79.2359 1.14344 81.5822C1.80543 82.966 2.94887 84.4701 3.73122 85.0115C4.51357 85.553 18.4756 91.5091 34.7244 98.3075C56.6303 107.452 64.8751 110.641 66.6805 110.641C68.486 110.641 76.791 107.452 98.6968 98.3075C114.946 91.5693 128.787 85.6132 129.51 85.1319C130.171 84.6506 131.255 83.4473 131.857 82.5449C132.94 80.9806 133 79.1757 133 56.3139C133 29.8423 132.94 29.1805 129.81 26.9544C127.945 25.5707 102.368 14.9821 100.924 14.9821C100.201 14.9821 99.9005 15.343 100.021 15.9447C100.141 16.5463 104.294 18.5918 111.636 21.6601C127.824 28.3984 128.787 28.8797 129.75 30.7447C130.412 32.0683 130.593 36.761 130.593 55.8927C130.593 81.8831 130.593 82.0034 126.862 83.7481C119.459 87.2375 67.8842 108.234 66.7407 108.234C65.9584 108.234 51.7557 102.579 35.2661 95.7205C10.7724 85.553 4.99502 82.966 3.97195 81.5822C2.70814 79.8977 2.70814 79.2961 2.70814 55.8927C2.70814 32.4894 2.76833 31.8878 3.97195 30.2032C4.93484 28.9398 8.2448 27.3154 18.4154 23.104C25.6371 20.0959 31.9561 17.4487 32.3774 17.2081C33.4606 16.4861 33.2801 14.9821 32.0765 15.0422C31.4747 15.0422 24.9751 17.5691 17.5729 20.6975Z"
        fill="#A70DE3" />
    <path
        d="M62.2873 45.9057C58.0144 47.7106 54.9452 53.4862 55.9081 57.7577C56.871 62.0895 60.542 66.1204 63.4307 66.1204C65.1158 66.1204 64.4538 64.496 62.2271 63.1724C59.218 61.3675 57.4126 57.1561 58.3153 54.0878C59.1578 51.1398 60.9031 49.0341 63.19 48.0715C64.875 47.3496 65.537 46.0862 64.514 45.4244C64.2732 45.304 63.2502 45.4845 62.2873 45.9057Z"
        fill="#A70DE3" />
</svg>